<svg width="123" height="56" viewBox="0 0 123 56" fill="none" xmlns="http://www.w3.org/2000/svg">
<g clip-path="url(#clip0_169_560)">
<path d="M28.1 17.2C28.8 17.2 29.3 16.7 29.3 16C29.3 15.3 28.8 14.7 28.2 14.7C27.5 14.7 27 15.2 27 15.9C26.9 16.6 27.4 17.2 28.1 17.2Z" fill="#421F10"/>
<path d="M113.5 35H34.4001C34.4001 34 34.2001 33 33.6001 31.6C33.4001 30.8001 33.0001 30 33.0001 29.5C33.2001 29.4 33.5001 29.2001 33.7001 29.1C35.4001 28.2001 37.8001 27 40.2001 20.7001C42.0001 15.9001 42.1001 11.3 40.5001 7.60005C39.5001 5.30005 38.0001 3.60005 36.4001 3.00005L36.0001 2.80005L35.6001 3.10005C32.5001 6.10005 24.1001 13.9 23.2001 14.6C22.5001 15.1 21.5001 15.3 20.4001 15.5C20.0001 15.6 19.5001 15.6 19.1001 15.7C16.9001 16.2 14.6001 16.8 13.9001 18.9C13.5001 20 14.2001 21.4 14.8001 22.4C15.6001 23.6 16.7001 24.8 17.9001 25.4C17.0001 31.2001 14.6001 33.2001 12.2001 35.2001C10.7001 36.4001 9.20007 37.6001 8.20007 39.7001C6.00007 43.9001 5.70007 46.7001 5.60007 48.2001C4.20007 47.6001 2.20007 43 2.20007 43L1.50007 43.4001C0.300067 44.3001 -0.199933 46.8001 0.200067 49.9001C0.900067 54.9001 3.80007 56 6.10007 56H113.5C116.5 56 118.9 53.4001 118.9 50.2001V40.8C118.9 37.6 116.5 35 113.5 35ZM40.1001 54.2001H34.2001C34.3001 52.7001 33.8001 50.7001 32.8001 49.8C32.3001 49.4 31.7001 49.1 31.2001 48.8C30.2001 48.3 29.5001 47.9 29.1001 46.8C28.4001 45.1 28.0001 42.3 28.2001 40.7001C28.3001 40.2001 27.9001 39.8 27.5001 39.7001C27.0001 39.6001 26.6001 40 26.6001 40.5C26.4001 42.4001 26.8001 45.4001 27.7001 47.5C28.4001 49.2001 29.6001 49.8 30.6001 50.3C31.1001 50.6 31.6001 50.8 31.9001 51.1C32.5001 51.6 32.8001 53.2 32.7001 54.1H24.7001C24.9001 53.1 25.0001 51.5 24.3001 50.3C23.4001 49 22.0001 48.1 20.4001 48C21.1001 46 21.5001 43.1 20.5001 41C19.8001 39.5 18.3001 38.4 16.6001 38.1C15.0001 37.8 13.4001 38.2001 12.1001 39.3C11.7001 39.6 11.7001 40.2001 12.0001 40.5C12.3001 40.9001 12.8001 40.9 13.1001 40.6C14.3001 39.6 15.4001 39.6 16.2001 39.8C17.4001 40.1 18.5001 40.9001 19.0001 41.9001C20.1001 44.1001 19.0001 47.7 18.2001 48.6L17.0001 50.5L19.1001 50.1C20.9001 49.5 22.2001 50.4001 22.8001 51.5C23.3001 52.3 23.1001 53.6001 22.9001 54.4001H7.80007H6.10007C3.50007 54.4001 2.20007 53 1.80007 49.9001C1.60007 48.5 1.70007 47.3001 1.80007 46.4001C2.70007 48.2001 4.30007 50.4001 6.40007 50.4001C6.40007 50.4001 6.40007 50.4001 6.50007 50.4001H7.20007L7.30007 49.7001C7.30007 49.5 7.30007 49.3 7.40007 49C7.40007 48.4001 7.50007 47.4001 7.80007 46C8.10007 44.6 8.70007 42.9 9.80007 40.8C10.7001 39.1 12.0001 38 13.4001 36.9001C13.6001 36.7001 13.9001 36.5 14.1001 36.3C16.4001 34.4 18.8001 32 19.7001 26.2001C20.5001 26.2001 21.4001 25.7 22.1001 24.9C23.1001 23.7 23.8001 21.6 23.7001 20.4C23.4001 18.5 20.9001 18.5 20.7001 18.5C20.3001 18.5 19.9001 18.9 19.9001 19.4C19.9001 19.9 20.3001 20.3 20.7001 20.3C21.4001 20.3 22.1001 20.6 22.1001 20.7001C22.2001 21.1 21.8001 22.7001 20.9001 23.7001C20.6001 24 20.2001 24.4 19.7001 24.4C18.9001 24.4 17.4001 23.1 16.4001 21.6C15.7001 20.6 15.6001 19.9001 15.7001 19.7001C16.1001 18.5001 17.8001 18 19.7001 17.6C20.2001 17.5 20.6001 17.4 21.0001 17.4C22.3001 17.2 23.5001 17 24.5001 16.2C25.3001 15.6 30.3001 10.9 33.8001 7.70005C34.6001 6.90005 35.4001 6.20005 36.0001 5.70005C36.2001 6.20005 36.6001 6.50005 37.1001 6.60005C37.5001 6.60005 37.8001 6.50005 38.0001 6.20005C38.5001 6.80005 39.0001 7.60005 39.5001 8.60005C40.3001 10.5 41.3001 14.5 39.1001 20.4C37.0001 26.1 35.0001 27.1 33.4001 27.9C33.0001 28.1 32.5001 28.3001 32.1001 28.6L31.9001 28.7001L31.8001 28.9C31.6001 29.5 31.6001 30 31.9001 30.8C32.0001 31.3 32.3001 31.8 32.5001 32.5C33.4001 35 33.2001 36.3 32.8001 37.8C32.6001 39 32.3001 40.3 32.5001 42.1C32.5001 42.2 32.5001 42.4001 32.6001 42.5C33.1001 45.9001 33.8001 46.9 34.9001 48.6L35.3001 49.1C36.2001 50.5 37.4001 50.8 38.4001 51.1C39.0001 51.3 39.5001 51.4 39.8001 51.8C40.1001 52.4 40.2001 53.5 40.1001 54.2001Z" fill="#421F10"/>
<path d="M117.3 50.2001C117.3 52.4001 115.6 54.2001 113.5 54.2001H41.7998C41.7998 53.2001 41.6998 51.7001 40.7998 50.4001C40.1998 49.6001 39.3998 49.4001 38.5998 49.1001C37.6998 48.8001 36.8998 48.6001 36.3998 47.7001L35.9998 47.1001C34.8998 45.5001 34.3998 44.8001 33.9998 41.4001C33.7998 39.9001 33.9998 38.9001 34.1998 37.8001C34.2998 37.4001 34.3998 37.0001 34.3998 36.6001H113.6C115.7 36.6001 117.4 38.4001 117.4 40.6001V50.2001H117.3Z" fill="#FFD300"/>
<path d="M37.9999 50.9C36.9999 50.6 35.7999 50.2 34.8999 48.9L34.4999 48.4C33.3999 46.8 32.6999 45.8 32.1999 42.3C29.8999 41.7 28.3999 39.3 28.3999 36.4C28.3999 33.6 29.3999 31.3 31.3999 30.6C31.1999 29.8 31.0999 29.2 31.2999 28.7L31.3999 28.5L31.5999 28.4C31.9999 28.1 32.3999 27.9 32.8999 27.7C34.4999 26.9 36.3999 25.9 38.5999 20.2C40.7999 14.4 39.7999 10.3 38.9999 8.4C38.5999 7.4 38.0999 6.6 37.4999 6C37.2999 6.3 36.8999 6.4 36.5999 6.4C36.0999 6.4 35.6999 6 35.4999 5.5C34.8999 6 34.1999 6.8 33.2999 7.5C33.9999 9.2 34.4999 11.2 34.4999 13.2C34.4999 20.8 28.7999 26.9 21.7999 26.9C20.9999 26.9 20.1999 26.8 19.3999 26.7C19.6999 27.2 19.8999 27.7 19.9999 28.3C20.8999 31.7 18.9999 35.2 15.8999 36.1C15.1999 36.3 14.3999 36.4 13.6999 36.3V36.2C13.4999 36.4 13.1999 36.6 12.9999 36.8C11.5999 37.9 10.2999 39 9.3999 40.7C8.2999 42.8 7.6999 44.5 7.3999 45.9C8.3999 47 8.9999 48.6 8.9999 50.2C8.9999 51.8 8.4999 53.2 7.5999 54.3H22.9999C23.1999 53.5 23.3999 52.2 22.8999 51.4C22.2999 50.4 20.9999 49.4 19.1999 50L17.0999 50.4L18.2999 48.5C19.0999 47.6 20.1999 44 19.0999 41.8C18.5999 40.8 17.4999 40 16.2999 39.7C15.4999 39.5 14.2999 39.5 13.1999 40.5C12.7999 40.8 12.2999 40.7 12.0999 40.4C11.7999 40 11.8999 39.5 12.1999 39.2C13.4999 38.1 15.0999 37.7 16.6999 38C18.2999 38.4 19.7999 39.5 20.5999 40.9C21.6999 43 21.2999 45.9 20.4999 47.9C22.0999 48 23.4999 48.8 24.3999 50.3C25.0999 51.5 24.9999 53.1 24.7999 54.1H32.7999C32.8999 53.2 32.5999 51.6 31.9999 51.1C31.5999 50.8 31.0999 50.5 30.6999 50.3C29.5999 49.7 28.3999 49.1 27.7999 47.5C26.9999 45.4 26.4999 42.4 26.6999 40.5C26.7999 40 27.1999 39.7 27.5999 39.7C27.9999 39.8 28.3999 40.2 28.2999 40.7C28.0999 42.2 28.4999 45 29.1999 46.8C29.5999 47.9 30.3999 48.3 31.2999 48.8C31.7999 49.1 32.3999 49.4 32.8999 49.8C33.8999 50.6 34.3999 52.7 34.2999 54.2H40.1999C40.1999 53.5 40.1999 52.4 39.4999 51.5C39.1999 51.2 38.6999 51.1 37.9999 50.9Z" fill="white"/>
<path d="M28.5 36.4001C28.5 39.3001 29.9 41.7001 32.3 42.3001C32.3 42.2001 32.3 42.0001 32.2 41.9001C32 40.1001 32.2 38.8001 32.5 37.6001C32.8 36.1001 33.1 34.7001 32.2 32.3001C31.9 31.6001 31.7 31.1001 31.6 30.6001C29.5 31.3001 28.5 33.6001 28.5 36.4001Z" fill="#FFD300"/>
<path d="M16.0002 35.9999C19.1002 35.0999 21.0002 31.5999 20.1002 28.1999C20.0002 27.5999 19.7002 27.0999 19.5002 26.5999C20.3002 26.7999 21.1002 26.7999 21.9002 26.7999C28.9002 26.7999 34.6002 20.6999 34.6002 13.0999C34.6002 11.0999 34.2002 9.0999 33.4002 7.3999C29.9002 10.6999 24.9002 15.2999 24.1002 15.8999C23.1002 16.6999 21.9002 16.8999 20.6002 17.0999C20.2002 17.1999 19.8002 17.1999 19.3002 17.2999C17.5002 17.6999 15.7002 18.1999 15.3002 19.3999C15.2002 19.5999 15.4002 20.2999 16.0002 21.2999C17.0002 22.7999 18.5002 24.0999 19.3002 24.0999C19.8002 24.0999 20.2002 23.6999 20.5002 23.3999C21.4002 22.3999 21.7002 20.7999 21.7002 20.3999C21.7002 20.1999 21.0002 19.9999 20.3002 19.9999C19.8002 19.9999 19.5002 19.5999 19.5002 19.0999C19.5002 18.5999 19.9002 18.1999 20.3002 18.1999C20.5002 18.1999 23.0002 18.2999 23.3002 20.0999C23.5002 21.2999 22.7002 23.2999 21.7002 24.5999C21.0002 25.4999 20.2002 25.8999 19.3002 25.8999C18.4002 31.6999 16.0002 34.0999 13.7002 35.9999V36.0999C14.6002 36.2999 15.3002 36.2999 16.0002 35.9999ZM28.2002 14.6999C28.9002 14.6999 29.4002 15.2999 29.3002 15.9999C29.3002 16.6999 28.7002 17.2999 28.1002 17.1999C27.4002 17.1999 26.9002 16.5999 27.0002 15.8999C27.0002 15.1999 27.5002 14.5999 28.2002 14.6999Z" fill="#FFD300"/>
<path d="M7.6002 45.8C7.3002 47.1 7.2002 48.1 7.2002 48.8C7.2002 49.1 7.2002 49.3 7.1002 49.5L7.0002 50.2001H6.3002C6.3002 50.2001 6.3002 50.2001 6.2002 50.2001C4.1002 50.2001 2.5002 48.1001 1.6002 46.2001C1.4002 47.0001 1.4002 48.2001 1.6002 49.7001C2.0002 52.8001 3.3002 54.2001 5.9002 54.2001H7.6002C8.5002 53.1001 9.0002 51.7 9.0002 50.1C9.2002 48.5 8.6002 46.9 7.6002 45.8Z" fill="#FFD300"/>
<path d="M49.8002 40.1001C49.4002 40.1001 49.0002 40.5001 49.0002 40.9001V43.6001H45.3002V41.0001C45.3002 40.5001 45.0002 40.2001 44.5002 40.2001C44.1002 40.2001 43.7002 40.6001 43.7002 41.0001V48.4001C43.7002 48.9001 44.0002 49.2001 44.5002 49.2001C44.9002 49.2001 45.3002 48.8001 45.3002 48.4001V45.1001H49.0002V48.4001C49.0002 48.9001 49.3002 49.2001 49.8002 49.2001C50.2002 49.2001 50.6002 48.8001 50.6002 48.4001V41.0001C50.5002 40.5001 50.2002 40.1001 49.8002 40.1001Z" fill="#421F10"/>
<path d="M56.5001 42.4001C56.1001 42.4001 55.8001 42.7001 55.8001 43.1001C55.3001 42.8001 54.8001 42.6001 54.1001 42.6001C52.5001 42.6001 51.1001 44.0001 51.1001 45.8001C51.1001 47.6001 52.4001 49.0001 54.1001 49.0001C54.7001 49.0001 55.3001 48.8001 55.8001 48.5001C55.8001 48.9001 56.1001 49.2001 56.5001 49.2001C56.9001 49.2001 57.2001 48.9001 57.2001 48.5001V43.3001C57.2001 42.8001 56.9001 42.4001 56.5001 42.4001ZM54.2001 47.5001C53.3001 47.5001 52.6001 46.7001 52.6001 45.8001C52.6001 44.9001 53.3001 44.1001 54.2001 44.1001C55.1001 44.1001 55.8001 44.9001 55.8001 45.8001C55.7001 46.7001 55.0001 47.5001 54.2001 47.5001Z" fill="#421F10"/>
<path d="M94.2003 42.4001C93.8003 42.4001 93.5003 42.7001 93.5003 43.1001C93.0003 42.8001 92.5003 42.6001 91.8003 42.6001C90.2003 42.6001 88.8003 44.0001 88.8003 45.8001C88.8003 47.6001 90.1003 49.0001 91.8003 49.0001C92.4003 49.0001 93.0003 48.8001 93.5003 48.5001C93.5003 48.9001 93.8003 49.2001 94.2003 49.2001C94.6003 49.2001 94.9003 48.9001 94.9003 48.5001V43.3001C94.9003 42.8001 94.6003 42.4001 94.2003 42.4001ZM91.9003 47.5001C91.0003 47.5001 90.3003 46.7001 90.3003 45.8001C90.3003 44.9001 91.0003 44.1001 91.9003 44.1001C92.8003 44.1001 93.5003 44.9001 93.5003 45.8001C93.5003 46.7001 92.8003 47.5001 91.9003 47.5001Z" fill="#421F10"/>
<path d="M61.3002 42.6001C60.7002 42.6001 60.1002 42.8001 59.6002 43.1001C59.6002 42.7001 59.3002 42.4001 58.9002 42.4001C58.5002 42.4001 58.2002 42.7001 58.2002 43.1001V50.6001C58.2002 51.0001 58.5002 51.3001 58.9002 51.3001C59.3002 51.3001 59.6002 51.0001 59.6002 50.6001V48.3001C60.1002 48.6001 60.6002 48.8001 61.2002 48.8001C62.8002 48.8001 64.2002 47.4001 64.2002 45.6001C64.2002 44.0001 62.9002 42.6001 61.3002 42.6001ZM61.3002 47.5001C60.4002 47.5001 59.7002 46.7001 59.7002 45.8001C59.7002 44.9001 60.4002 44.1001 61.3002 44.1001C62.2002 44.1001 62.9002 44.9001 62.9002 45.8001C62.8002 46.7001 62.1002 47.5001 61.3002 47.5001Z" fill="#421F10"/>
<path d="M68.1 42.6001C67.5 42.6001 66.9 42.8001 66.4 43.1001C66.4 42.7001 66.1 42.4001 65.7 42.4001C65.3 42.4001 65 42.7001 65 43.1001V50.6001C65 51.0001 65.3 51.3001 65.7 51.3001C66.1 51.3001 66.4 51.0001 66.4 50.6001V48.3001C66.9 48.6001 67.4 48.8001 68 48.8001C69.6 48.8001 71 47.4001 71 45.6001C71.1 44.0001 69.7 42.6001 68.1 42.6001ZM68.1 47.5001C67.2 47.5001 66.5 46.7001 66.5 45.8001C66.5 44.9001 67.2 44.1001 68.1 44.1001C69 44.1001 69.7 44.9001 69.7 45.8001C69.7 46.7001 69 47.5001 68.1 47.5001Z" fill="#421F10"/>
<path d="M85.6002 40.1001H83.4002C83.2002 40.1001 83.0002 40.2001 82.9002 40.4001C82.8002 40.5001 82.7002 40.8001 82.7002 41.0001V48.4001C82.7002 48.9001 83.0002 49.2001 83.5002 49.2001C83.9002 49.2001 84.3002 48.8001 84.3002 48.4001V46.5001H85.8002C87.4002 46.5001 88.8002 45.1001 88.8002 43.3001C88.5002 41.5001 87.2002 40.1001 85.6002 40.1001ZM85.6002 45.0001H84.1002V41.6001H85.6002C86.5002 41.6001 87.2002 42.4001 87.2002 43.3001C87.2002 44.2001 86.4002 45.0001 85.6002 45.0001Z" fill="#421F10"/>
<path d="M76.7001 42.5001C76.3001 42.4001 75.9001 42.6001 75.8001 42.9001L74.3001 47.4001L72.5001 42.9001C72.4001 42.5001 71.9001 42.3001 71.6001 42.5001C71.2001 42.7001 71.1001 43.1001 71.2001 43.5001L73.2001 48.7001C73.3001 48.9001 73.5001 49.1001 73.7001 49.1001L73.2001 50.7001C73.1001 51.1001 73.3001 51.5001 73.6001 51.7001C73.7001 51.7001 73.8001 51.7001 73.8001 51.7001C74.1001 51.7001 74.3001 51.5001 74.4001 51.2001L77.1001 43.5001C77.3001 43.0001 77.1001 42.6001 76.7001 42.5001Z" fill="#421F10"/>
<path d="M104.3 42.5001C103.9 42.3001 103.5 42.5001 103.4 42.9001L102 46.3001L100.8 42.9001C100.8 42.9001 100.8 42.8001 100.7 42.8001C100.7 42.8001 100.7 42.7001 100.6 42.7001L100.5 42.6001L100.4 42.5001H100.3H100.2H100.1H100L99.9002 42.6001C99.9002 42.6001 99.8002 42.6001 99.8002 42.7001C99.8002 42.7001 99.8002 42.8001 99.7002 42.8001L99.6002 42.9001L98.4002 46.3001L97.1002 42.9001C97.0002 42.5001 96.5002 42.3001 96.2002 42.5001C95.8002 42.7001 95.7002 43.1001 95.8002 43.5001L97.8002 48.7001C97.8002 48.8001 97.9002 48.8001 97.9002 48.9001C97.9002 48.9001 97.9002 48.9001 98.0002 49.0001C98.1002 49.0001 98.1002 49.1001 98.2002 49.1001C98.3002 49.1001 98.3002 49.1001 98.4002 49.1001C98.5002 49.1001 98.6002 49.1001 98.6002 49.0001C98.7002 49.0001 98.7002 48.9001 98.7002 48.9001C98.7002 48.9001 98.7002 48.9001 98.8002 48.8001C98.8002 48.8001 98.9002 48.7001 98.9002 48.6001C98.9002 48.6001 98.9002 48.6001 98.9002 48.5001L100 45.2001L101.1 48.5001C101.1 48.5001 101.1 48.5001 101.1 48.6001C101.1 48.7001 101.2 48.7001 101.2 48.8001C101.2 48.8001 101.2 48.8001 101.3 48.9001L101.4 49.0001C101.5 49.0001 101.6 49.1001 101.6 49.1001C101.7 49.1001 101.7 49.1001 101.8 49.1001C101.9 49.1001 101.9 49.0001 102 49.0001C102 49.0001 102 49.0001 102.1 49.0001C102.1 48.9001 102.2 48.9001 102.2 48.8001L104.2 43.6001C104.8 43.1001 104.7 42.6001 104.3 42.5001Z" fill="#421F10"/>
<path d="M28.2 14.7C27.5 14.7 27 15.2 27 15.9C27 16.6 27.5 17.2 28.1 17.2C28.8 17.2 29.3 16.7 29.3 16C29.4 15.3 28.9 14.7 28.2 14.7Z" fill="#421F10"/>
<path d="M115.3 12.8C115.3 12.8 119.5 10.8 121 9.09995C121.3 8.79995 121.4 8.59995 121.4 8.49995C121.4 8.29995 121 8.09995 120.7 7.99995C120.6 7.99995 118 6.89995 115.6 6.79995C115.4 6.79995 115.3 6.69995 115.1 6.59995C114.2 5.79995 114 4.99995 114 4.79995C114 4.59995 114 4.39995 114.1 4.19995L115.4 1.89995C115.4 1.89995 115.4 1.79995 115.4 1.69995C115.3 1.69995 115.1 1.69995 114.8 1.69995C111.7 2.19995 109.3 2.39995 107.7 2.19995C105.7 1.89995 103.1 2.29995 99.7001 4.69995C99.3001 4.99995 98.4001 5.49995 97.7001 5.99995C97.6001 6.09995 97.3001 6.09995 97.3001 7.49995C97.3001 7.69995 97.3001 7.89995 97.3001 8.19995C97.2001 10.5 97.2001 11.9 101.6 15.9C101.7 16 101.8 16.2 101.9 16.4C102.7 20.3 101.8 29.2 101.8 29.6C101.8 30 101.5 30.2999 101.2 30.4C101 30.4 100.5 30.6999 100.5 31.9V32H109.1C109.5 32 109.9 32.4 109.9 32.7999C109.9 33.2999 109.6 33.5999 109.1 33.5999H97.6001C97.5001 33.5999 93.6001 34.2 93.6001 38.9C93.6001 39.1 93.7001 39.2999 93.8001 39.2999C93.9001 39.3999 94.0001 39.2999 94.0001 39.2999C94.0001 39.2999 94.1001 39.2 94.1001 38.9C94.1001 37.6 94.5001 36.6 95.2001 35.9C96.4001 34.7 98.1001 34.8 98.1001 34.9H109.1C110 34.9 110.7 34.5999 111.1 34C112 32.7999 112 31.0999 111.8 29.2999C111.8 29.0999 110.7 21.9 108.5 19.2999C108.3 19.0999 108.2 18.7999 108.3 18.5C108.4 18.2 108.6 18 108.9 18C113.8 17.2 114.8 13.4 114.8 13.3C115 13.1 115.1 12.9 115.3 12.8Z" fill="white"/>
<path d="M95.7 33.8999C94 34.8999 93.5 35.4999 93 38.0999C93 38.1999 93 38.2999 93 38.3999C93.1 38.5999 93.4 40.7999 94.6 39.5999L95 38.3999C95.1 37.5999 95.4 37.0999 95.7 36.6999C96 36.1999 96.5 35.8999 97.4 35.8999C98.8 34.6999 98 32.4999 95.7 33.8999Z" fill="#FFD300"/>
<path d="M107.2 33.5998C106.8 33.5998 106.5 33.2998 106.4 32.7998C106.3 31.3998 106.8 30.4998 107.4 29.9998C107.1 29.1998 106.8 27.9998 107.2 26.8998C107.4 26.1998 107.8 25.3998 109.2 24.9998C109.6 24.8998 110 25.0998 110.2 25.4998C110.3 25.8998 110.1 26.3998 109.7 26.4998C109.1 26.6998 108.9 26.9998 108.7 27.3998C108.4 28.2998 108.9 29.4998 109.1 29.8998C109.2 30.0998 109.2 30.3998 109.1 30.6998C109 30.8998 108.8 31.0998 108.6 31.1998C108.4 31.1998 107.9 31.4998 107.9 32.6998C108 33.1999 107.7 33.5998 107.2 33.5998Z" fill="#421F10"/>
<path d="M121 6.9999C121 6.9999 120.2 6.6999 119.2 6.3999C114.6 9.0999 115.2 11.7999 116 13.3999C116.9 12.7999 121.2 10.2999 121.7 9.6999C123.3 7.7999 121 6.9999 121 6.9999Z" fill="#FFD300"/>
<path d="M101.5 27.5C102.9 27.2 105.1 25.7 104.8 21.7C104.3 14.4 102.4 15.6 101.6 15.8C101.1 15.9 101.1 16.3 101.1 16.7C101.5 18.9 101.4 24.9 101.5 27.5Z" fill="#FFD300"/>
<path d="M109.1 6.19994C109.1 6.19994 108.1 1.99994 104.9 3.09994C101.7 4.19994 99.9001 7.29994 100.4 8.59994C100.9 9.79994 102.5 10.7999 105.6 9.69994C108.8 8.69994 109.4 7.89994 109.1 6.19994Z" fill="#FFD300"/>
<path d="M103.5 33.0998C103.1 33.0998 102.8 32.7998 102.7 32.2998C102.6 30.5998 103.3 29.6998 104 29.2998C104.1 27.9998 104.2 24.3999 103.6 21.4999C103.5 21.0999 103.8 20.5999 104.2 20.4999C104.6 20.3999 105 20.6999 105.1 21.0999C105.9 25.0999 105.5 29.6999 105.5 29.8998C105.5 30.2998 105.2 30.5999 104.9 30.5999C104.7 30.5999 104.2 30.8998 104.2 32.0998C104.3 32.6998 104 33.0998 103.5 33.0998Z" fill="#421F10"/>
<path d="M122.9 8.0999C122.6 6.8999 121.4 6.3999 121.3 6.3999C121.2 6.3999 118.6 5.2999 116 5.0999C115.9 4.9999 115.8 4.7999 115.7 4.6999L116.9 2.6999C117 2.5999 117.4 1.4999 116.8 0.699902C116.4 0.0999023 115.7 -0.100098 114.7 0.0999024C111.7 0.599902 109.5 0.699902 108 0.499902C106.1 0.199902 102.7 0.399902 98.8001 3.3999C97.9001 4.0999 96.9001 4.4999 96.6001 4.7999C96.0001 5.4999 96.0001 5.9999 96.0001 7.5999V8.1999C95.9001 10.9999 96.1001 12.8999 100.6 17.0999C101.2 20.3999 100.4 27.1999 100.4 29.0999C99.7001 29.4999 99.0001 30.3999 99.1001 31.9999H97.5001C95.6001 32.2999 92.1001 33.9999 92.1001 38.8999C92.1001 39.6999 92.5001 40.3999 93.1001 40.7999C93.4001 40.9999 93.7001 40.9999 94.0001 40.9999C94.3001 40.9999 94.6001 40.8999 94.9001 40.6999C95.4001 40.2999 95.7001 39.5999 95.7001 38.8999C95.7001 38.0999 95.9001 37.4999 96.3001 37.1999C97.0001 36.4999 98.1001 36.5999 98.2001 36.5999H109.2C110.6 36.5999 111.6 36.0999 112.4 35.0999C114.3 32.6999 113.4 29.0999 113.4 28.8999C113.4 28.7999 112.4 22.2999 110.5 19.3999C114.5 18.2999 115.9 15.1999 116.3 14.0999C117.4 13.5999 120.7 11.7999 122.2 10.2999C123 9.3999 123 8.5999 122.9 8.0999ZM121.1 9.1999C119.6 10.7999 115.4 12.7999 115.4 12.8999C115.2 12.9999 115 13.1999 115 13.3999C115 13.5999 114 17.2999 109.1 18.0999C108.8 18.0999 108.6 18.3999 108.5 18.5999C108.4 18.8999 108.5 19.1999 108.7 19.3999C110.9 21.9999 112 29.1999 112 29.3999C112.2 31.1999 112.2 32.8999 111.3 34.0999C110.8 34.6999 110.2 34.9999 109.3 34.9999H98.3001C98.2001 34.9999 96.5001 34.8999 95.4001 35.9999C94.7001 36.6999 94.3001 37.6999 94.3001 38.9999C94.3001 39.2999 94.3001 39.3999 94.2001 39.3999C94.2001 39.3999 94.1001 39.3999 94.0001 39.3999C93.9001 39.2999 93.8001 39.1999 93.8001 38.9999C93.8001 34.2999 97.7001 33.6999 97.8001 33.6999H109.5C109.9 33.6999 110.3 33.2999 110.3 32.8999C110.3 32.3999 110 32.0999 109.5 32.0999H100.9V31.9999C100.8 30.7999 101.4 30.5999 101.6 30.4999C102 30.3999 102.2 30.0999 102.2 29.6999C102.2 29.2999 103 20.3999 102.3 16.4999C102.3 16.2999 102.2 16.1999 102 15.9999C97.6001 11.9999 97.6001 10.4999 97.7001 8.2999C97.7001 8.0999 97.7001 7.8999 97.7001 7.5999C97.7001 6.0999 98.0001 6.1999 98.1001 6.0999C98.7001 5.5999 99.6001 5.0999 100.1 4.7999C103.5 2.3999 106.1 2.0999 108.1 2.2999C109.7 2.4999 112 2.3999 115.2 1.7999C115.5 1.6999 115.7 1.7999 115.8 1.7999C115.8 1.8999 115.8 1.9999 115.8 1.9999L114.5 4.2999C114.4 4.4999 114.4 4.6999 114.4 4.8999C114.4 5.0999 114.6 5.8999 115.5 6.6999C115.6 6.7999 115.8 6.8999 116 6.8999C118.4 6.8999 121.1 8.0999 121.1 8.0999C121.4 8.1999 121.7 8.4999 121.8 8.5999C121.5 8.5999 121.4 8.7999 121.1 9.1999Z" fill="#421F10"/>
<path d="M97.7001 7.4998C98.3076 7.4998 98.8001 7.00732 98.8001 6.3998C98.8001 5.79229 98.3076 5.2998 97.7001 5.2998C97.0926 5.2998 96.6001 5.79229 96.6001 6.3998C96.6001 7.00732 97.0926 7.4998 97.7001 7.4998Z" fill="#421F10"/>
<path d="M104.8 7.59995C105.463 7.59995 106 7.06269 106 6.39995C106 5.73721 105.463 5.19995 104.8 5.19995C104.137 5.19995 103.6 5.73721 103.6 6.39995C103.6 7.06269 104.137 7.59995 104.8 7.59995Z" fill="#421F10"/>
</g>
<defs>
<clipPath id="clip0_169_560">
<rect width="123" height="56" fill="white"/>
</clipPath>
</defs>
</svg>
