<svg width="137" height="31" viewBox="0 0 137 31" fill="none" xmlns="http://www.w3.org/2000/svg">
<path fill-rule="evenodd" clip-rule="evenodd" d="M136.975 26.0608C136.869 25.5236 136.651 24.5192 136.524 23.9123C136.51 23.8559 136.486 23.8029 136.451 23.7564C136.417 23.7099 136.374 23.6709 136.324 23.6418C136.275 23.6127 136.22 23.5941 136.163 23.587C136.106 23.58 136.048 23.5846 135.993 23.6008C135.607 23.7471 135.199 23.8252 134.787 23.8317C133.879 23.8317 133.194 23.2946 133.401 22.2204C133.651 20.985 136.874 8.336 136.874 8.336C136.89 8.28806 136.894 8.23712 136.887 8.18715C136.88 8.13719 136.862 8.08955 136.834 8.04795C136.805 8.00636 136.768 7.97194 136.724 7.94737C136.681 7.9228 136.632 7.90875 136.582 7.90631H130.39C130.321 7.90875 130.255 7.93361 130.202 7.97717C130.148 8.02073 130.11 8.08067 130.093 8.14801L129.795 9.29207C129.781 9.34689 129.752 9.3967 129.712 9.43613C129.671 9.47557 129.621 9.50313 129.566 9.51584C129.512 9.52855 129.455 9.52593 129.401 9.50827C129.348 9.49061 129.301 9.45856 129.264 9.4156C128.871 8.9739 128.417 8.59216 127.915 8.28229C127.653 8.11474 127.375 7.97267 127.087 7.85797C125.587 7.31194 123.964 7.20947 122.408 7.56256C117.655 8.49714 114.75 12.4718 114.065 13.5138C113.64 14.2174 112.031 15.775 111.144 15.6945C110.926 15.6793 110.714 15.6111 110.528 15.4957C109.864 14.9586 110.082 13.9703 110.331 13.1647C110.629 12.0904 112.811 8.93757 113.412 8.05671C113.428 8.03554 113.438 8.01004 113.44 7.98325C113.443 7.95647 113.438 7.92955 113.425 7.90572C113.413 7.8819 113.394 7.86218 113.371 7.84895C113.348 7.83571 113.321 7.82952 113.295 7.83112H109.418C109.124 7.8281 108.832 7.88853 108.563 8.00836C106.614 8.90974 104.79 10.0635 103.135 11.4405L101.893 12.4557C101.883 12.4629 101.871 12.4668 101.859 12.4669C101.847 12.4669 101.835 12.4631 101.825 12.456C101.815 12.4489 101.807 12.4389 101.803 12.4273C101.799 12.4156 101.799 12.403 101.802 12.3912C102.025 11.7198 102.785 9.39412 103.151 7.97077C103.156 7.95354 103.157 7.93534 103.154 7.91767C103.151 7.9 103.143 7.88338 103.132 7.86919C103.121 7.855 103.107 7.84366 103.091 7.8361C103.075 7.82854 103.057 7.82499 103.04 7.82575H98.3609C97.6274 7.82662 96.9143 8.07012 96.3303 8.51912C95.7464 8.96812 95.3237 9.59796 95.1267 10.3126C94.8293 11.4566 94.5956 12.3858 94.3673 13.0733C94.2244 13.5132 94.0468 13.9407 93.8362 14.3517C93.3335 15.3654 92.6492 16.276 91.8181 17.0372C90.4479 18.2458 87.1765 20.8669 86.741 21.1891C85.9482 21.8232 85.0983 22.3807 84.2025 22.8542C82.8217 23.4934 80.7611 23.6169 79.6246 23.1066C79.2751 22.9982 78.9568 22.8057 78.6969 22.5457C78.437 22.2856 78.2433 21.9658 78.1323 21.6135C78.1213 21.5842 78.1161 21.553 78.1171 21.5217C78.1181 21.4904 78.1252 21.4597 78.1381 21.4312C78.1509 21.4027 78.1692 21.3771 78.1919 21.3558C78.2147 21.3345 78.2413 21.3181 78.2704 21.3073C80.2377 20.595 82.148 19.7313 83.9848 18.7238C86.672 17.0695 88.7644 15.6139 89.1521 12.7887C89.5823 9.45857 86.9588 7.61627 83.6449 7.57867C79.8158 7.53033 76.0187 9.7701 73.4907 13.2613C71.8532 15.6084 70.7637 18.3007 70.3043 21.1354C70.2939 21.2064 70.2655 21.2735 70.2217 21.33C70.1779 21.3865 70.1204 21.4305 70.0547 21.4577C69.4493 21.6994 66.5921 22.5319 66.1885 22.5856C66.146 22.5856 66.1195 22.5856 66.1354 22.548L66.3584 22.2097C67.35 20.7816 67.7832 19.0326 67.5746 17.3004C67.3675 15.4098 66.2363 13.9435 65.9814 12.0528V11.6285C66.0504 10.3502 66.847 9.41023 67.9198 8.40583C67.9635 8.36386 67.9941 8.30983 68.0078 8.25045C68.0214 8.19106 68.0176 8.12893 67.9967 8.07174C67.9757 8.01456 67.9387 7.96484 67.8901 7.92875C67.8415 7.89266 67.7835 7.87179 67.7233 7.86871H60.8193C57.8666 8.73347 55.1262 14.5289 48.4028 14.7169C48.3778 14.7184 48.3527 14.7146 48.3292 14.7058C48.3057 14.6969 48.2843 14.6832 48.2663 14.6656C48.2483 14.6479 48.2341 14.6266 48.2247 14.6031C48.2153 14.5795 48.2109 14.5543 48.2117 14.5289C48.1406 13.3932 47.979 12.2652 47.7284 11.1559C47.1176 8.65827 45.3492 6.90728 42.3645 7.56256C41.658 7.69637 40.9868 7.97812 40.3943 8.38972C40.3943 8.38972 33.1982 9.53914 26.99 10.796C27.8981 8.43268 30.0489 2.47072 30.8243 0.639165C30.8597 0.575281 30.8783 0.503314 30.8785 0.430094C30.8786 0.356874 30.8603 0.284829 30.8252 0.220798C30.7901 0.156766 30.7393 0.102872 30.6779 0.0642293C30.6164 0.0255865 30.5461 0.00347738 30.4738 0H15.7206C15.0089 0 14.4301 0.0644536 14.1274 0.418949L10.1178 4.7266C10.1029 4.74194 10.0929 4.76144 10.0891 4.78259C10.0852 4.80374 10.0878 4.82556 10.0964 4.84523C10.1049 4.8649 10.1192 4.88151 10.1372 4.89292C10.1552 4.90433 10.1762 4.91 10.1974 4.90922H21.0313C21.0916 4.91372 21.15 4.93305 21.2012 4.96552C21.2525 4.99799 21.2952 5.04262 21.3255 5.09554C21.3559 5.14846 21.373 5.20808 21.3754 5.26921C21.3778 5.33034 21.3654 5.39114 21.3393 5.44633C20.6914 7.02008 19.1779 10.9571 18.7636 12.0528C18.7558 12.0706 18.7428 12.0856 18.7265 12.0958C16.9367 12.461 15.1736 12.88 13.4901 13.3688C8.64669 14.7169 1.40285 17.5958 0.213241 22.9186C-1.61896 31.0344 8.8007 32.5706 14.4354 29.595C20.0701 26.6194 24.6108 17.6818 25.1737 15.7965C24.5683 15.5333 22.7786 15.0123 19.1619 15.8932C18.4427 16.0687 17.7336 16.2838 17.0376 16.5377C16.2463 18.3156 14.3079 22.1022 14.0477 22.6125C13.1555 24.342 11.164 26.2756 8.82194 26.2273C8.28049 26.2201 7.74633 26.1 7.25287 25.8745C6.75942 25.649 6.31729 25.3229 5.95414 24.9167C4.67957 23.3591 5.35403 21.2751 5.42307 21.0656C5.82471 20.0003 6.57422 19.1059 7.54737 18.5304C11.3499 16.0919 16.3844 14.8136 17.7387 14.5021C20.1073 13.965 24.701 13.3204 27.5476 13.025L29.4913 12.8424C28.4292 14.1852 22.3749 23.6975 30.6384 28.1394C33.2938 29.552 37.3618 29.2136 40.2827 27.5486C44.1543 25.3518 46.7618 21.1784 47.824 16.8331C47.8289 16.8099 47.8417 16.7892 47.8601 16.7745C47.8785 16.7598 47.9014 16.752 47.9249 16.7526H48.1479C50.0915 16.706 52.0102 16.3 53.8092 15.5548C56.9956 14.3517 58.1002 13.315 58.403 12.9552C58.4108 12.9467 58.421 12.9408 58.4321 12.9382C58.4433 12.9355 58.455 12.9362 58.4657 12.9402C58.4765 12.9442 58.4858 12.9513 58.4926 12.9607C58.4994 12.97 58.5033 12.9812 58.5039 12.9928C58.541 14.5289 59.7519 18.09 59.7944 18.5089C59.959 20.0397 59.8634 20.7863 59.1465 21.9196C58.4295 23.0529 56.8841 23.4826 55.7529 23.3913C55.3865 23.3591 53.8464 23.3 53.2356 22.1183C52.8851 21.4255 52.7736 20.2116 53.2038 19.6637C53.2622 19.5885 53.4799 19.3415 53.4162 19.1266C53.3525 18.9118 53.2144 18.8205 53.156 18.8419C52.0938 19.1857 51.1113 19.5993 50.097 19.986C49.8011 20.1006 49.5368 20.2852 49.3261 20.5245C49.1154 20.7637 48.9645 21.0506 48.8861 21.361C48.7919 21.7774 48.7368 22.2018 48.7215 22.6286C48.6375 23.7394 48.8807 24.8505 49.4204 25.8217C49.96 26.7929 50.772 27.5807 51.7539 28.0857C53.1259 28.8663 54.7006 29.2054 56.268 29.0578C57.3693 28.9419 58.4451 28.6481 59.4545 28.1877C61.2176 27.5002 68.7483 24.5783 70.299 24.1755C70.3242 24.1692 70.3504 24.1684 70.376 24.173C70.4015 24.1776 70.4258 24.1875 70.4473 24.2022C70.4688 24.2169 70.4871 24.2359 70.5008 24.2581C70.5146 24.2804 70.5237 24.3053 70.5274 24.3312C70.846 25.8191 72.4445 27.7258 74.3139 28.51C75.4504 28.988 76.4382 29.1169 78.2598 28.9397C80.0814 28.7624 82.296 27.7903 84.1388 26.614C84.7708 26.2111 86.1197 25.1101 87.4102 24.0144C87.4102 24.0144 91.6057 20.5016 91.8553 20.2546C91.8778 20.2314 91.9075 20.2166 91.9394 20.2125C91.9712 20.2084 92.0036 20.2153 92.0312 20.232C92.0587 20.2488 92.0799 20.2744 92.0914 20.3048C92.1028 20.3351 92.1038 20.3685 92.0943 20.3996L89.6619 28.0696C89.6461 28.1236 89.6431 28.1806 89.6531 28.236C89.663 28.2914 89.6857 28.3437 89.7193 28.3886C89.7529 28.4336 89.7964 28.4699 89.8464 28.4947C89.8964 28.5195 89.9514 28.5321 90.0071 28.5315H95.918C96.0964 28.5327 96.2707 28.4767 96.4157 28.3715C96.5608 28.2663 96.6691 28.1174 96.7252 27.946C97.2563 26.4314 98.6849 22.1022 98.9239 21.3395L98.9717 21.1838C100.22 17.9611 103.22 14.5826 104.638 14.0026C104.67 13.988 104.706 13.9827 104.741 13.9872C104.775 13.9917 104.808 14.0058 104.836 14.028C104.863 14.0502 104.884 14.0797 104.896 14.1131C104.908 14.1465 104.911 14.1826 104.904 14.2174C104.699 15.1552 104.785 16.1339 105.148 17.0211C105.679 18.2404 107.219 19.32 109.434 19.1696C110.004 19.1308 110.565 19.0022 111.096 18.7882C111.478 18.6056 111.537 18.901 111.489 19.3253C111.447 19.6046 111.186 21.3503 111.181 21.549V21.5866C111.128 22.482 111.255 23.379 111.553 24.2238C112.182 25.9662 113.456 27.3932 115.106 28.2038C116.262 28.697 117.52 28.8944 118.77 28.7786C119.637 28.6966 120.496 28.5366 121.335 28.3005C122.941 27.7915 124.446 27.0007 125.78 25.9641C125.855 25.905 126.083 25.6472 126.269 25.717C126.455 25.7868 126.444 25.9533 126.46 26.0232C126.662 26.7966 127.777 27.8547 128.76 28.3435C128.979 28.455 129.208 28.545 129.445 28.612C129.886 28.7322 130.342 28.7936 130.799 28.7947C133.592 28.886 135.435 27.3015 136.779 26.5227C136.858 26.4803 136.922 26.4127 136.961 26.3304C136.999 26.248 137.01 26.1552 136.991 26.0661M44.1065 16.2638C43.6142 18.224 42.5524 19.9901 41.0581 21.3342C38.8435 23.3698 35.2694 24.0895 33.7452 21.9142C32.3644 19.9269 33.1451 16.5055 35.0782 14.486C36.2795 13.2008 37.888 12.3817 39.6242 12.171C39.669 12.1685 39.7136 12.1794 39.7523 12.2023C39.791 12.2252 39.8222 12.2592 39.8419 12.2999C40.5642 13.6964 42.2424 15.1412 44.0215 16.0597C44.0624 16.0792 44.0956 16.1121 44.1158 16.153C44.1361 16.1939 44.1421 16.2405 44.133 16.2853M44.4039 13.7555C43.7719 13.358 42.0565 12.1764 42.2318 11.1934C42.2392 11.043 42.2844 10.8969 42.3631 10.7691C42.4418 10.6412 42.5515 10.5357 42.6817 10.4626C42.8119 10.3895 42.9584 10.3512 43.1073 10.3512C43.2563 10.3513 43.4027 10.3898 43.5329 10.463C44.064 10.71 44.218 11.3707 44.4198 12.2032C44.5338 12.668 44.6032 13.1429 44.6269 13.6212C44.6276 13.6479 44.6213 13.6744 44.6085 13.6978C44.5958 13.7213 44.5771 13.7408 44.5543 13.7545C44.5316 13.7682 44.5057 13.7755 44.4792 13.7757C44.4528 13.7758 44.4268 13.7689 44.4039 13.7555ZM77.5641 18.4337C77.5641 17.4293 77.75 14.486 79.7787 12.692C80.2035 12.316 81.3719 11.274 82.7898 11.4566C83.08 11.4784 83.3626 11.5601 83.6203 11.6969C83.8779 11.8336 84.105 12.0224 84.2875 12.2516C84.5114 12.6681 84.5829 13.1512 84.4893 13.6158C84.1759 15.5924 78.7749 18.0739 77.7181 18.5358C77.7013 18.5428 77.6831 18.5455 77.6651 18.5438C77.647 18.5421 77.6296 18.5359 77.6145 18.5259C77.5993 18.5158 77.5868 18.5022 77.578 18.4861C77.5692 18.4701 77.5644 18.4521 77.5641 18.4337ZM128.414 13.4225C128.364 13.919 128.256 14.4077 128.09 14.878L126.641 19.9591C126.4 21.0564 125.809 22.043 124.958 22.7663C124.108 23.4896 123.045 23.9094 121.935 23.9606C121.479 24.0118 121.017 23.9677 120.578 23.8309C120.14 23.6941 119.733 23.4676 119.385 23.1654C119.036 22.8632 118.753 22.4918 118.552 22.0743C118.351 21.6567 118.238 21.2018 118.218 20.738C118.218 16.7741 120.289 14.6095 121.128 13.546C122.365 11.983 124.559 10.608 125.908 10.6671C127.724 10.7476 128.457 11.7413 128.377 13.4225" fill="#E2001A"/>
</svg>
