<svg version="1.1" xmlns="http://www.w3.org/2000/svg" xmlns:xlink="http://www.w3.org/1999/xlink">
<defs>
<symbol id="icon-account" viewBox="0 0 32 32">
<path d="M16 0.445c-8.587 0-15.556 6.969-15.556 15.556s6.969 15.555 15.556 15.555c8.587 0 15.555-6.969 15.555-15.555s-6.969-15.556-15.555-15.556zM16 6.667c3.002 0 5.444 2.442 5.444 5.444s-2.442 5.444-5.444 5.444c-3.002 0-5.444-2.442-5.444-5.444s2.442-5.444 5.444-5.444zM16 28.445c-3.158 0-6.891-1.276-9.551-4.48 2.725-2.138 6.088-3.3 9.551-3.3s6.826 1.162 9.551 3.3c-2.66 3.204-6.393 4.48-9.551 4.48z"></path>
</symbol>
<symbol id="icon-back-top" viewBox="0 0 512 512">
<path d="M256 0C114.837 0 0 114.837 0 256s114.837 256 256 256 256-114.837 256-256S397.163 0 256 0zm121.749 313.749A21.275 21.275 0 0 1 362.666 320a21.275 21.275 0 0 1-15.083-6.251L256 222.165l-91.584 91.584c-8.341 8.341-21.824 8.341-30.165 0-8.341-8.341-8.341-21.824 0-30.165l106.667-106.667c8.341-8.341 21.824-8.341 30.165 0L377.75 283.584c8.341 8.341 8.341 21.824-.001 30.165z"/>
</symbol>
<symbol id="icon-camera" viewBox="0 0 30 32">
<path d="M15.158 12.982c-2.519 0-4.561 2.042-4.561 4.561s2.042 4.562 4.561 4.562 4.561-2.042 4.561-4.562c0-2.519-2.042-4.561-4.561-4.561z"></path>
<path d="M11.299 0.35c-1.938 0-3.509 1.571-3.509 3.509v0.251c0 0.637-0.516 1.153-1.153 1.153-3.627 0-6.566 2.94-6.566 6.566v6.471c0 2.25-0 4.014 0.134 5.424 0.137 1.436 0.42 2.613 1.055 3.65 0.665 1.086 1.578 1.999 2.664 2.664 1.037 0.635 2.213 0.919 3.65 1.055 1.409 0.134 3.174 0.134 5.424 0.134h4.321c2.25 0 4.015 0 5.424-0.134 1.436-0.137 2.613-0.42 3.65-1.055 1.086-0.665 1.999-1.578 2.664-2.664 0.635-1.037 0.919-2.213 1.055-3.65 0.134-1.41 0.134-3.174 0.134-5.424v-6.471c0-3.627-2.94-6.566-6.567-6.566-0.637 0-1.153-0.516-1.153-1.153v-0.251c0-1.938-1.571-3.509-3.509-3.509h-7.719zM8.492 17.543c0-3.682 2.985-6.667 6.667-6.667s6.667 2.985 6.667 6.667c0 3.682-2.985 6.667-6.667 6.667s-6.667-2.985-6.667-6.667zM23.579 13.333c-0.775 0-1.403-0.628-1.403-1.403s0.628-1.404 1.403-1.404c0.775 0 1.404 0.628 1.404 1.404s-0.628 1.403-1.404 1.403z"></path>
</symbol>
<symbol id="icon-check" viewBox="0 0 42 32">
<path d="M40.7 1.018c1.477 1.406 1.534 3.743 0.128 5.22l-23.434 24.615c-0.697 0.732-1.663 1.146-2.674 1.146s-1.977-0.414-2.674-1.146l-11.028-11.584c-1.406-1.477-1.349-3.814 0.128-5.22s3.814-1.349 5.22 0.128l8.353 8.775 20.76-21.806c1.406-1.477 3.743-1.534 5.22-0.128z"></path>
</symbol>
<symbol id="icon-close" viewBox="0 0 32 32">
<path d="M18.193 15.999l12.896-12.896c0.255-0.298 0.388-0.68 0.373-1.072s-0.178-0.763-0.455-1.040-0.648-0.439-1.040-0.454c-0.392-0.015-0.774 0.118-1.072 0.373l-12.895 12.896-12.896-12.911c-0.293-0.293-0.69-0.457-1.104-0.457s-0.812 0.165-1.104 0.457c-0.293 0.293-0.457 0.69-0.457 1.104s0.165 0.812 0.457 1.104l12.911 12.896-12.911 12.896c-0.163 0.139-0.295 0.311-0.388 0.504s-0.146 0.403-0.154 0.617c-0.008 0.214 0.028 0.428 0.106 0.628s0.197 0.381 0.348 0.532c0.152 0.152 0.333 0.27 0.532 0.348s0.413 0.114 0.627 0.106c0.214-0.008 0.424-0.061 0.617-0.154s0.365-0.226 0.504-0.388l12.911-12.896 12.895 12.896c0.298 0.255 0.68 0.388 1.072 0.373s0.763-0.177 1.040-0.454 0.439-0.648 0.455-1.040c0.015-0.391-0.118-0.774-0.373-1.072l-12.896-12.896z"></path>
</symbol>
<symbol id="icon-heart-filled" viewBox="0 0 39 32">
<path stroke-linejoin="round" stroke-linecap="round" stroke-miterlimit="4" stroke-width="4.5714" d="M11.81 2.286c-4.207 0-7.619 3.377-7.619 7.543 0 3.363 1.333 11.345 14.458 19.413 0.235 0.143 0.505 0.219 0.78 0.219s0.545-0.076 0.78-0.219c13.125-8.069 14.458-16.050 14.458-19.413 0-4.166-3.412-7.543-7.619-7.543s-7.619 4.571-7.619 4.571-3.412-4.571-7.619-4.571z"></path>
</symbol>
<symbol id="icon-heart-outlined" viewBox="0 0 35 32">
<path d="M9.333 1.333c-4.418 0-8 3.645-8 8.142 0 3.63 1.4 12.246 15.181 20.955 0.247 0.154 0.53 0.236 0.819 0.236s0.572-0.082 0.819-0.236c13.781-8.709 15.181-17.325 15.181-20.955 0-4.497-3.582-8.142-8-8.142s-8 4.935-8 4.935c0 0-3.582-4.935-8-4.935z"></path>
<path fill="none" stroke-linejoin="round" stroke-linecap="round" stroke-miterlimit="4" stroke-width="2.6667" d="M9.333 1.333c-4.418 0-8 3.645-8 8.142 0 3.63 1.4 12.246 15.181 20.955 0.247 0.154 0.53 0.236 0.819 0.236s0.572-0.082 0.819-0.236c13.781-8.709 15.181-17.325 15.181-20.955 0-4.497-3.582-8.142-8-8.142s-8 4.935-8 4.935c0 0-3.582-4.935-8-4.935z"></path>
</symbol>
<symbol id="icon-logout" viewBox="0 0 32 32">
<path stroke-linejoin="miter" stroke-linecap="butt" stroke-miterlimit="4" stroke-width="1.7778" d="M27.209 11.682l0-0c0.141-0.141 0.369-0.141 0.511 0l2.799 2.799c0.871 0.871 0.871 2.291 0 3.162l-2.799 2.799c-0.071 0.071-0.162 0.106-0.255 0.106s-0.184-0.035-0.255-0.106h-0c-0.141-0.141-0.141-0.369 0-0.51l3.508-3.509h-17.155c-0.2 0-0.361-0.162-0.361-0.361s0.162-0.361 0.361-0.361h17.155l-3.508-3.509c-0.141-0.141-0.141-0.369 0-0.51zM21.736 24.5v2.5c0 2.266-1.845 4.111-4.111 4.111h-12.563c-2.266 0-4.111-1.845-4.111-4.111v-22c0-2.266 1.845-4.111 4.111-4.111h12.563c2.266 0 4.111 1.845 4.111 4.111v2.5c0 0.2-0.162 0.361-0.361 0.361s-0.361-0.162-0.361-0.361v-2.5c0-1.869-1.519-3.389-3.389-3.389h-12.563c-1.869 0-3.389 1.52-3.389 3.389v22c0 1.869 1.52 3.389 3.389 3.389h12.563c1.869 0 3.389-1.52 3.389-3.389v-2.5c0-0.199 0.162-0.361 0.361-0.361s0.361 0.162 0.361 0.361z"></path>
</symbol>
<symbol id="icon-menu" viewBox="0 0 48 32">
<path d="M0 29.333c0 1.473 1.194 2.667 2.667 2.667h42.667c1.473 0 2.667-1.194 2.667-2.667s-1.194-2.667-2.667-2.667h-42.667c-1.473 0-2.667 1.194-2.667 2.667zM0 16c0 1.473 1.194 2.667 2.667 2.667h42.667c1.473 0 2.667-1.194 2.667-2.667s-1.194-2.667-2.667-2.667h-42.667c-1.473 0-2.667 1.194-2.667 2.667zM2.667 0c-1.473 0-2.667 1.194-2.667 2.667s1.194 2.667 2.667 2.667h42.667c1.473 0 2.667-1.194 2.667-2.667s-1.194-2.667-2.667-2.667h-42.667z"></path>
</symbol>
<symbol id="icon-pensil" viewBox="0 0 32 32">
<path d="M3.061 30.454c-0.21-0-0.418-0.044-0.61-0.129s-0.365-0.209-0.506-0.364c-0.144-0.154-0.254-0.337-0.323-0.536s-0.094-0.411-0.075-0.621l0.371-4.082 17.148-17.142 5.359 5.358-17.144 17.141-4.082 0.371c-0.046 0.004-0.092 0.006-0.138 0.006zM25.494 11.865l-5.358-5.358 3.214-3.214c0.141-0.141 0.308-0.253 0.492-0.329s0.381-0.115 0.58-0.115c0.199 0 0.396 0.039 0.58 0.115s0.351 0.188 0.492 0.329l3.214 3.214c0.141 0.141 0.253 0.308 0.329 0.492s0.116 0.381 0.116 0.58c0 0.199-0.039 0.396-0.116 0.58s-0.188 0.351-0.329 0.492l-3.214 3.214z"></path>
</symbol>
 <symbol  viewBox="0 0 51 51" id="icon-plus-big">
    <path d="M25.4999 49.1663V25.4997M25.4999 25.4997V1.83301M25.4999 25.4997H49.1666M25.4999 25.4997H1.83325" stroke="#111111" stroke-opacity="0.6" stroke-width="2" stroke-linecap="round"></path>
  </symbol>
<symbol id="icon-plus" viewBox="0 0 32 32">
<path d="M16 30.222v0zM16 16v0zM16 16v0zM16 16v0z"></path>
<path stroke-linejoin="miter" stroke-linecap="round" stroke-miterlimit="4" stroke-width="2.6667" d="M16 30.222v-14.222M16 16v-14.222M16 16h14.222M16 16h-14.222"></path>
</symbol>
<symbol id="icon-search" viewBox="0 0 32 32">
<path d="M21.833 19.333h-1.317l-0.467-0.45c1.633-1.9 2.617-4.367 2.617-7.050 0-5.983-4.85-10.833-10.833-10.833s-10.833 4.85-10.833 10.833c0 5.983 4.85 10.833 10.833 10.833 2.683 0 5.15-0.983 7.050-2.617l0.45 0.467v1.317l8.333 8.317 2.483-2.483-8.317-8.333zM11.833 19.333c-4.15 0-7.5-3.35-7.5-7.5s3.35-7.5 7.5-7.5c4.15 0 7.5 3.35 7.5 7.5s-3.35 7.5-7.5 7.5z"></path>
</symbol>
 <symbol viewBox="0 0 40 40" id="icon-sex-female">
    <g filter="url(#filter0_ii_107_9041)">
      <path d="M20.0001 0C12.9046 0 7.15137 5.75327 7.15137 12.8487C7.15137 18.5312 10.8423 23.3529 15.9567 25.048C16.8665 25.3495 17.5532 26.1572 17.5532 27.1157V27.6007C17.5532 28.7052 16.6578 29.6007 15.5532 29.6007H14.0427C12.9381 29.6007 12.0427 30.4961 12.0427 31.6007V32.492C12.0427 33.5966 12.9381 34.492 14.0427 34.492H15.5532C16.6577 34.492 17.5532 35.3874 17.5532 36.492V38C17.5532 39.1046 18.4486 40 19.5532 40H20.4445C21.5491 40 22.4445 39.1046 22.4445 38V36.492C22.4445 35.3874 23.3399 34.492 24.4445 34.492H25.955C27.0595 34.492 27.955 33.5966 27.955 32.492V31.6007C27.955 30.4961 27.0595 29.6007 25.955 29.6007H24.4445C23.34 29.6007 22.4445 28.7052 22.4445 27.6007V25.4647C28.3705 24.3224 32.8488 19.1079 32.8488 12.8487C32.8488 5.75327 27.0956 0 20.0001 0ZM20.0001 5.10927C24.2745 5.10927 27.7396 8.57437 27.7396 12.8487C27.7396 17.1231 24.2745 20.5882 20.0001 20.5882C15.7257 20.5882 12.2606 17.1231 12.2606 12.8487C12.2606 8.57437 15.7257 5.10927 20.0001 5.10927Z" fill="#FF8787"></path>
    </g>
    <defs>
      <filter id="filter0_ii_107_9041" x="-1" y="-3" width="41" height="45" filterUnits="userSpaceOnUse" color-interpolation-filters="sRGB">
        <feFlood flood-opacity="0" result="BackgroundImageFix"></feFlood>
        <feBlend mode="normal" in="SourceGraphic" in2="BackgroundImageFix" result="shape"></feBlend>
        <feColorMatrix in="SourceAlpha" type="matrix" values="0 0 0 0 0 0 0 0 0 0 0 0 0 0 0 0 0 0 127 0" result="hardAlpha"></feColorMatrix>
        <feOffset dy="-3"></feOffset>
        <feGaussianBlur stdDeviation="2"></feGaussianBlur>
        <feComposite in2="hardAlpha" operator="arithmetic" k2="-1" k3="1"></feComposite>
        <feColorMatrix type="matrix" values="0 0 0 0 0 0 0 0 0 0 0 0 0 0 0 0 0 0 0.25 0"></feColorMatrix>
        <feBlend mode="normal" in2="shape" result="effect1_innerShadow_107_9041"></feBlend>
        <feColorMatrix in="SourceAlpha" type="matrix" values="0 0 0 0 0 0 0 0 0 0 0 0 0 0 0 0 0 0 127 0" result="hardAlpha"></feColorMatrix>
        <feOffset dx="-1" dy="2"></feOffset>
        <feGaussianBlur stdDeviation="1.5"></feGaussianBlur>
        <feComposite in2="hardAlpha" operator="arithmetic" k2="-1" k3="1"></feComposite>
        <feColorMatrix type="matrix" values="0 0 0 0 1 0 0 0 0 1 0 0 0 0 1 0 0 0 0.57 0"></feColorMatrix>
        <feBlend mode="normal" in2="effect1_innerShadow_107_9041" result="effect2_innerShadow_107_9041"></feBlend>
      </filter>
    </defs>
  </symbol>
  <symbol  viewBox="0 0 36 36" id="icon-sex-male" >
    <g filter="url(#filter0_ii_107_9044)">
      <path d="M23.849 0C22.7444 0 21.849 0.895431 21.849 2V3.01246C21.849 4.11703 22.7444 5.01246 23.849 5.01246H27.3538L20.0977 12.1752C18.0617 10.8659 15.6348 10.106 13.029 10.106C5.83368 10.106 1.17167e-10 15.9021 1.17167e-10 23.0524C-3.01887e-05 30.2028 5.83368 36 13.029 36C20.2244 36 26.0569 30.2028 26.0569 23.0524C26.0569 20.3345 25.2146 17.8123 23.7746 15.7297L30.9089 8.64009V12.0625C30.9089 13.1671 31.8043 14.0625 32.9089 14.0625H33.9529C35.0574 14.0625 35.9528 13.1674 35.9557 12.0629C35.9642 8.81008 35.9893 5.24664 35.9975 1.99927C36.0002 0.894844 35.1048 0 34.0004 0H23.849ZM13.029 15.3173C17.3283 15.3173 20.8129 18.7801 20.8129 23.0524C20.8129 27.3248 17.3283 30.7888 13.029 30.7888C8.72978 30.7888 5.244 27.3248 5.244 23.0524C5.244 18.7801 8.72975 15.3173 13.029 15.3173Z" fill="#23C2EF"></path>
    </g>
    <defs>
      <filter id="filter0_ii_107_9044" x="-1" y="-3" width="36.9976" height="41" filterUnits="userSpaceOnUse" color-interpolation-filters="sRGB">
        <feFlood flood-opacity="0" result="BackgroundImageFix"></feFlood>
        <feBlend mode="normal" in="SourceGraphic" in2="BackgroundImageFix" result="shape"></feBlend>
        <feColorMatrix in="SourceAlpha" type="matrix" values="0 0 0 0 0 0 0 0 0 0 0 0 0 0 0 0 0 0 127 0" result="hardAlpha"></feColorMatrix>
        <feOffset dy="-3"></feOffset>
        <feGaussianBlur stdDeviation="2"></feGaussianBlur>
        <feComposite in2="hardAlpha" operator="arithmetic" k2="-1" k3="1"></feComposite>
        <feColorMatrix type="matrix" values="0 0 0 0 0 0 0 0 0 0 0 0 0 0 0 0 0 0 0.25 0"></feColorMatrix>
        <feBlend mode="normal" in2="shape" result="effect1_innerShadow_107_9044"></feBlend>
        <feColorMatrix in="SourceAlpha" type="matrix" values="0 0 0 0 0 0 0 0 0 0 0 0 0 0 0 0 0 0 127 0" result="hardAlpha"></feColorMatrix>
        <feOffset dx="-1" dy="2"></feOffset>
        <feGaussianBlur stdDeviation="1.5"></feGaussianBlur>
        <feComposite in2="hardAlpha" operator="arithmetic" k2="-1" k3="1"></feComposite>
        <feColorMatrix type="matrix" values="0 0 0 0 1 0 0 0 0 1 0 0 0 0 1 0 0 0 0.57 0"></feColorMatrix>
        <feBlend mode="normal" in2="effect1_innerShadow_107_9044" result="effect2_innerShadow_107_9044"></feBlend>
      </filter>
    </defs> 
  </symbol>
<symbol id="icon-trashcan" viewBox="0 0 32 32">
<path d="M13.778 4.889h4.444c0-0.589-0.234-1.155-0.651-1.571s-0.982-0.651-1.571-0.651c-0.589 0-1.155 0.234-1.571 0.651s-0.651 0.982-0.651 1.571zM11.556 4.889c0-1.179 0.468-2.309 1.302-3.143s1.964-1.302 3.143-1.302c1.179 0 2.309 0.468 3.143 1.302s1.302 1.964 1.302 3.143h8.889c0.295 0 0.577 0.117 0.786 0.325s0.326 0.491 0.326 0.786-0.117 0.577-0.326 0.786c-0.208 0.208-0.491 0.325-0.786 0.325h-1.253l-2.678 19.64c-0.181 1.331-0.839 2.551-1.851 3.434s-2.31 1.37-3.653 1.37h-7.796c-1.343 0-2.641-0.487-3.653-1.37s-1.67-2.103-1.851-3.434l-2.678-19.64h-1.253c-0.295 0-0.577-0.117-0.786-0.325s-0.325-0.491-0.325-0.786c0-0.295 0.117-0.577 0.325-0.786s0.491-0.325 0.786-0.325h8.889zM13.778 12.667c0-0.295-0.117-0.577-0.325-0.786s-0.491-0.325-0.786-0.325c-0.295 0-0.577 0.117-0.786 0.325s-0.325 0.491-0.325 0.786v11.111c0 0.295 0.117 0.577 0.325 0.786s0.491 0.326 0.786 0.326 0.577-0.117 0.786-0.326c0.208-0.208 0.325-0.491 0.325-0.786v-11.111zM19.333 11.556c-0.295 0-0.577 0.117-0.786 0.325s-0.326 0.491-0.326 0.786v11.111c0 0.295 0.117 0.577 0.326 0.786s0.491 0.326 0.786 0.326 0.577-0.117 0.786-0.326c0.209-0.208 0.326-0.491 0.326-0.786v-11.111c0-0.295-0.117-0.577-0.326-0.786s-0.491-0.325-0.786-0.325z"></path>
</symbol>
<symbol id="paw" viewBox="0 0 249 209.32">
		<ellipse cx="27.917" cy="106.333" stroke-width="0" rx="27.917" ry="35.833"/>
		<ellipse cx="84.75" cy="47.749" stroke-width="0" rx="34.75" ry="47.751"/>
		<ellipse cx="162" cy="47.749" stroke-width="0" rx="34.75" ry="47.751"/>
		<ellipse cx="221.083" cy="106.333" stroke-width="0" rx="27.917" ry="35.833"/>
		<path stroke-width="0" d="M43.98 165.39s9.76-63.072 76.838-64.574c0 0 71.082-6.758 83.096 70.33 0 0 2.586 19.855-12.54 31.855 0 0-15.75 17.75-43.75-6.25 0 0-7.124-8.374-24.624-7.874 0 0-12.75-.125-21.5 6.625 0 0-16.375 18.376-37.75 12.75 0 0-28.29-7.72-19.77-42.86z"/>
</symbol>
<symbol id="eye" viewBox="0 0 32 32">
<path d="M16 6c-6.979 0-13.028 4.064-16 10 2.972 5.936 9.021 10 16 10s13.027-4.064 16-10c-2.972-5.936-9.021-10-16-10zM23.889 11.303c1.88 1.199 3.473 2.805 4.67 4.697-1.197 1.891-2.79 3.498-4.67 4.697-2.362 1.507-5.090 2.303-7.889 2.303s-5.527-0.796-7.889-2.303c-1.88-1.199-3.473-2.805-4.67-4.697 1.197-1.891 2.79-3.498 4.67-4.697 0.122-0.078 0.246-0.154 0.371-0.228-0.311 0.854-0.482 1.776-0.482 2.737 0 4.418 3.582 8 8 8s8-3.582 8-8c0-0.962-0.17-1.883-0.482-2.737 0.124 0.074 0.248 0.15 0.371 0.228v0zM16 13c0 1.657-1.343 3-3 3s-3-1.343-3-3 1.343-3 3-3 3 1.343 3 3z"></path>
</symbol>
<symbol id="eye-blocked" viewBox="0 0 32 32">
<path d="M29.561 0.439c-0.586-0.586-1.535-0.586-2.121 0l-6.318 6.318c-1.623-0.492-3.342-0.757-5.122-0.757-6.979 0-13.028 4.064-16 10 1.285 2.566 3.145 4.782 5.407 6.472l-4.968 4.968c-0.586 0.586-0.586 1.535 0 2.121 0.293 0.293 0.677 0.439 1.061 0.439s0.768-0.146 1.061-0.439l27-27c0.586-0.586 0.586-1.536 0-2.121zM13 10c1.32 0 2.44 0.853 2.841 2.037l-3.804 3.804c-1.184-0.401-2.037-1.521-2.037-2.841 0-1.657 1.343-3 3-3zM3.441 16c1.197-1.891 2.79-3.498 4.67-4.697 0.122-0.078 0.246-0.154 0.371-0.228-0.311 0.854-0.482 1.776-0.482 2.737 0 1.715 0.54 3.304 1.459 4.607l-1.904 1.904c-1.639-1.151-3.038-2.621-4.114-4.323z"></path>
<path d="M24 13.813c0-0.849-0.133-1.667-0.378-2.434l-10.056 10.056c0.768 0.245 1.586 0.378 2.435 0.378 4.418 0 8-3.582 8-8z"></path>
<path d="M25.938 9.062l-2.168 2.168c0.040 0.025 0.079 0.049 0.118 0.074 1.88 1.199 3.473 2.805 4.67 4.697-1.197 1.891-2.79 3.498-4.67 4.697-2.362 1.507-5.090 2.303-7.889 2.303-1.208 0-2.403-0.149-3.561-0.439l-2.403 2.403c1.866 0.671 3.873 1.036 5.964 1.036 6.978 0 13.027-4.064 16-10-1.407-2.81-3.504-5.2-6.062-6.938z"></path>
</symbol>
</defs>
</svg>
