<svg aria-hidden="true" style="position: absolute; width: 0; height: 0; overflow: hidden;" version="1.1" xmlns="http://www.w3.org/2000/svg" xmlns:xlink="http://www.w3.org/1999/xlink">
<defs>
<symbol id="icon-el_female-2-1" viewBox="0 0 32 32">
<path fill="#23c2ef" style="fill: var(--color1, #23c2ef)" d="M20.679 1.6c-0.884 0-1.6 0.716-1.6 1.6v0 0.81c0 0.884 0.716 1.6 1.6 1.6v0h2.804l-5.805 5.73c-1.593-1.038-3.542-1.655-5.635-1.655-0.007 0-0.014 0-0.021 0h0.001c-5.756 0-10.423 4.637-10.423 10.357s4.667 10.358 10.423 10.358 10.422-4.638 10.422-10.358c0-2.174-0.674-4.192-1.826-5.858l5.707-5.672v2.738c0 0.884 0.716 1.6 1.6 1.6v0h0.835c0.883 0 1.6-0.716 1.602-1.6 0.006-2.602 0.026-5.452 0.033-8.050 0.002-0.883-0.714-1.599-1.598-1.599h-8.12zM12.023 13.854c3.44 0 6.227 2.77 6.227 6.188s-2.788 6.19-6.227 6.19c-3.44 0-6.228-2.771-6.228-6.19s2.789-6.188 6.228-6.188z"></path>
</symbol>
</defs>
</svg>
